<svg width="640" height="640" viewBox="0 0 640 640" fill="none" xmlns="http://www.w3.org/2000/svg"><path d="M359.046 536.432h237.915a42.882 42.882 0 0021.524-5.792 43.141 43.141 0 0015.755-15.83 43.377 43.377 0 005.76-21.623 43.369 43.369 0 00-5.779-21.618L474.444 193.577a43.123 43.123 0 00-15.752-15.826 42.888 42.888 0 00-21.52-5.793 42.888 42.888 0 00-21.52 5.793 43.13 43.13 0 00-15.752 15.826l-40.854 71.129-79.877-139.089a43.154 43.154 0 00-15.759-15.825A42.916 42.916 0 00241.885 104a42.912 42.912 0 00-21.524 5.792 43.139 43.139 0 00-15.759 15.825L5.779 471.569A43.377 43.377 0 000 493.187a43.376 43.376 0 005.76 21.623 43.137 43.137 0 0015.755 15.83 42.882 42.882 0 0021.524 5.792h149.343c59.172 0 102.809-26.108 132.835-77.044l72.898-126.815 39.046-67.867 117.183 203.859H398.115l-39.069 67.867zm-168.982-67.96H85.725l156.23-271.797 77.952 135.898-52.192 90.832c-19.94 33.049-42.593 45.09-77.767 45.09" fill="#00DC82"/></svg>